<?xml version="1.0" encoding="UTF-8"?>
<!DOCTYPE svg PUBLIC "-//W3C//DTD SVG 1.1//EN" "http://www.w3.org/Graphics/SVG/1.1/DTD/svg11.dtd">
<svg xmlns="http://www.w3.org/2000/svg" version="1.1" width="180px" height="180px" style="shape-rendering:geometricPrecision; text-rendering:geometricPrecision; image-rendering:optimizeQuality; fill-rule:evenodd; clip-rule:evenodd" xmlns:xlink="http://www.w3.org/1999/xlink">
<g><path style="opacity:0.998" fill="#a86a24" d="M 9.5,-0.5 C 62.8333,-0.5 116.167,-0.5 169.5,-0.5C 173.167,2.5 176.5,5.83333 179.5,9.5C 179.5,62.8333 179.5,116.167 179.5,169.5C 176.5,173.167 173.167,176.5 169.5,179.5C 116.167,179.5 62.8333,179.5 9.5,179.5C 5.45643,176.457 2.12309,172.791 -0.5,168.5C -0.5,115.833 -0.5,63.1667 -0.5,10.5C 2.12309,6.20918 5.45643,2.54252 9.5,-0.5 Z"/></g>
<g><path style="opacity:1" fill="#fdfdfc" d="M 126.5,145.5 C 126.833,122.49 126.5,99.4903 125.5,76.5C 124.893,76.6236 124.56,76.9569 124.5,77.5C 115.635,100.095 106.968,122.762 98.5,145.5C 92.5746,145.808 86.7412,145.475 81,144.5C 72.1928,121.743 63.1928,99.076 54,76.5C 53.5,99.4976 53.3334,122.498 53.5,145.5C 44.5,145.5 35.5,145.5 26.5,145.5C 26.5,108.167 26.5,70.8333 26.5,33.5C 38.0809,33.1789 49.5809,33.5122 61,34.5C 70.2654,57.3521 79.7654,80.0187 89.5,102.5C 99.5479,80.0312 109.215,57.3646 118.5,34.5C 129.814,33.5012 141.147,33.1678 152.5,33.5C 152.5,70.8333 152.5,108.167 152.5,145.5C 143.833,145.5 135.167,145.5 126.5,145.5 Z"/></g>
<g><path style="opacity:1" fill="#d0af8a" d="M 124.5,77.5 C 124.56,76.9569 124.893,76.6236 125.5,76.5C 126.5,99.4903 126.833,122.49 126.5,145.5C 125.833,122.833 125.167,100.167 124.5,77.5 Z"/></g>
</svg>
